<svg xmlns="http://www.w3.org/2000/svg" style="display: none;">
  <symbol id="bold" viewBox="0 0 24 24" fill="none" stroke="currentColor" stroke-width="2" stroke-linecap="round" stroke-linejoin="round">
    <path d="M6 12h9a4 4 0 0 1 0 8H7a1 1 0 0 1-1-1V5a1 1 0 0 1 1-1h7a4 4 0 0 1 0 8"/>
  </symbol>
  <symbol id="book-marked" viewBox="0 0 24 24" fill="none" stroke="currentColor" stroke-width="2" stroke-linecap="round" stroke-linejoin="round">
    <path d="M10 2v8l3-3 3 3V2"/><path d="M4 19.5v-15A2.5 2.5 0 0 1 6.5 2H19a1 1 0 0 1 1 1v18a1 1 0 0 1-1 1H6.5a1 1 0 0 1 0-5H20"/>
  </symbol>
  <symbol id="book-search" viewBox="0 0 24 24" fill="none" stroke="currentColor" stroke-width="2" stroke-linecap="round" stroke-linejoin="round">
    <path d="M11 22H5.5a1 1 0 0 1 0-5h4.501"/><path d="m21 22-1.879-1.878"/><path d="M3 19.5v-15A2.5 2.5 0 0 1 5.5 2H18a1 1 0 0 1 1 1v8"/><circle cx="17" cy="18" r="3"/>
  </symbol>
  <symbol id="code" viewBox="0 0 24 24" fill="none" stroke="currentColor" stroke-width="2" stroke-linecap="round" stroke-linejoin="round">
    <path d="m16 18 6-6-6-6"/><path d="m8 6-6 6 6 6"/>
  </symbol>
  <symbol id="eye-off" viewBox="0 0 24 24" fill="none" stroke="currentColor" stroke-width="2" stroke-linecap="round" stroke-linejoin="round">
    <path d="M10.733 5.076a10.744 10.744 0 0 1 11.205 6.575 1 1 0 0 1 0 .696 10.747 10.747 0 0 1-1.444 2.49"/><path d="M14.084 14.158a3 3 0 0 1-4.242-4.242"/><path d="M17.479 17.499a10.75 10.75 0 0 1-15.417-5.151 1 1 0 0 1 0-.696 10.75 10.75 0 0 1 4.446-5.143"/><path d="m2 2 20 20"/>
  </symbol>
  <symbol id="eye" viewBox="0 0 24 24" fill="none" stroke="currentColor" stroke-width="2" stroke-linecap="round" stroke-linejoin="round">
    <path d="M2.062 12.348a1 1 0 0 1 0-.696 10.75 10.75 0 0 1 19.876 0 1 1 0 0 1 0 .696 10.75 10.75 0 0 1-19.876 0"/><circle cx="12" cy="12" r="3"/>
  </symbol>
  <symbol id="file-pen-line" viewBox="0 0 24 24" fill="none" stroke="currentColor" stroke-width="2" stroke-linecap="round" stroke-linejoin="round">
    <path d="m18.226 5.226-2.52-2.52A2.4 2.4 0 0 0 14 2H6a2 2 0 0 0-2 2v16a2 2 0 0 0 2 2h12a2 2 0 0 0 2-2v-.351"/><path d="M21.378 12.626a1 1 0 0 0-3.004-3.004l-4.01 4.012a2 2 0 0 0-.506.854l-.837 2.87a.5.5 0 0 0 .62.62l2.87-.837a2 2 0 0 0 .854-.506z"/><path d="M8 18h1"/>
  </symbol>
  <symbol id="file-symlink" viewBox="0 0 24 24" fill="none" stroke="currentColor" stroke-width="2" stroke-linecap="round" stroke-linejoin="round">
    <path d="M4 11V4a2 2 0 0 1 2-2h8a2.4 2.4 0 0 1 1.706.706l3.588 3.588A2.4 2.4 0 0 1 20 8v12a2 2 0 0 1-2 2H6a2 2 0 0 1-2-2v-3a2 2 0 0 1 2-2h7"/><path d="M14 2v5a1 1 0 0 0 1 1h5"/><path d="m10 18 3-3-3-3"/>
  </symbol>
  <symbol id="heading-1" viewBox="0 0 24 24" fill="none" stroke="currentColor" stroke-width="2" stroke-linecap="round" stroke-linejoin="round">
    <path d="M4 12h8"/><path d="M4 18V6"/><path d="M12 18V6"/><path d="m17 12 3-2v8"/>
  </symbol>
  <symbol id="heading-2" viewBox="0 0 24 24" fill="none" stroke="currentColor" stroke-width="2" stroke-linecap="round" stroke-linejoin="round">
    <path d="M4 12h8"/><path d="M4 18V6"/><path d="M12 18V6"/><path d="M21 18h-4c0-4 4-3 4-6 0-1.5-2-2.5-4-1"/>
  </symbol>
  <symbol id="heading-3" viewBox="0 0 24 24" fill="none" stroke="currentColor" stroke-width="2" stroke-linecap="round" stroke-linejoin="round">
    <path d="M4 12h8"/><path d="M4 18V6"/><path d="M12 18V6"/><path d="M17.5 10.5c1.7-1 3.5 0 3.5 1.5a2 2 0 0 1-2 2"/><path d="M17 17.5c2 1.5 4 .3 4-1.5a2 2 0 0 0-2-2"/>
  </symbol>
  <symbol id="heading-4" viewBox="0 0 24 24" fill="none" stroke="currentColor" stroke-width="2" stroke-linecap="round" stroke-linejoin="round">
    <path d="M12 18V6"/><path d="M17 10v3a1 1 0 0 0 1 1h3"/><path d="M21 10v8"/><path d="M4 12h8"/><path d="M4 18V6"/>
  </symbol>
  <symbol id="heading-5" viewBox="0 0 24 24" fill="none" stroke="currentColor" stroke-width="2" stroke-linecap="round" stroke-linejoin="round">
    <path d="M4 12h8"/><path d="M4 18V6"/><path d="M12 18V6"/><path d="M17 13v-3h4"/><path d="M17 17.7c.4.2.8.3 1.3.3 1.5 0 2.7-1.1 2.7-2.5S19.8 13 18.3 13H17"/>
  </symbol>
  <symbol id="heading-6" viewBox="0 0 24 24" fill="none" stroke="currentColor" stroke-width="2" stroke-linecap="round" stroke-linejoin="round">
    <path d="M4 12h8"/><path d="M4 18V6"/><path d="M12 18V6"/><circle cx="19" cy="16" r="2"/><path d="M20 10c-2 2-3 3.5-3 6"/>
  </symbol>
  <symbol id="heading" viewBox="0 0 24 24" fill="none" stroke="currentColor" stroke-width="2" stroke-linecap="round" stroke-linejoin="round">
    <path d="M6 12h12"/><path d="M6 20V4"/><path d="M18 20V4"/>
  </symbol>
  <symbol id="italic" viewBox="0 0 24 24" fill="none" stroke="currentColor" stroke-width="2" stroke-linecap="round" stroke-linejoin="round">
    <line x1="19" x2="10" y1="4" y2="4"/><line x1="14" x2="5" y1="20" y2="20"/><line x1="15" x2="9" y1="4" y2="20"/>
  </symbol>
  <symbol id="link" viewBox="0 0 24 24" fill="none" stroke="currentColor" stroke-width="2" stroke-linecap="round" stroke-linejoin="round">
    <path d="M10 13a5 5 0 0 0 7.54.54l3-3a5 5 0 0 0-7.07-7.07l-1.72 1.71"/><path d="M14 11a5 5 0 0 0-7.54-.54l-3 3a5 5 0 0 0 7.07 7.07l1.71-1.71"/>
  </symbol>
  <symbol id="list-ordered" viewBox="0 0 24 24" fill="none" stroke="currentColor" stroke-width="2" stroke-linecap="round" stroke-linejoin="round">
    <path d="M11 5h10"/><path d="M11 12h10"/><path d="M11 19h10"/><path d="M4 4h1v5"/><path d="M4 9h2"/><path d="M6.5 20H3.4c0-1 2.6-1.925 2.6-3.5a1.5 1.5 0 0 0-2.6-1.02"/>
  </symbol>
  <symbol id="list" viewBox="0 0 24 24" fill="none" stroke="currentColor" stroke-width="2" stroke-linecap="round" stroke-linejoin="round">
    <path d="M3 5h.01"/><path d="M3 12h.01"/><path d="M3 19h.01"/><path d="M8 5h13"/><path d="M8 12h13"/><path d="M8 19h13"/>
  </symbol>
  <symbol id="loader" viewBox="0 0 24 24" fill="none" stroke="currentColor" stroke-width="2" stroke-linecap="round" stroke-linejoin="round">
    <path d="M12 2v4"/><path d="m16.2 7.8 2.9-2.9"/><path d="M18 12h4"/><path d="m16.2 16.2 2.9 2.9"/><path d="M12 18v4"/><path d="m4.9 19.1 2.9-2.9"/><path d="M2 12h4"/><path d="m4.9 4.9 2.9 2.9"/>
  </symbol>
  <symbol id="menu" viewBox="0 0 24 24" fill="none" stroke="currentColor" stroke-width="2" stroke-linecap="round" stroke-linejoin="round">
    <path d="M4 5h16"/><path d="M4 12h16"/><path d="M4 19h16"/>
  </symbol>
  <symbol id="notebook-tabs" viewBox="0 0 24 24" fill="none" stroke="currentColor" stroke-width="2" stroke-linecap="round" stroke-linejoin="round">
    <path d="M2 6h4"/><path d="M2 10h4"/><path d="M2 14h4"/><path d="M2 18h4"/><rect width="16" height="20" x="4" y="2" rx="2"/><path d="M15 2v20"/><path d="M15 7h5"/><path d="M15 12h5"/><path d="M15 17h5"/>
  </symbol>
  <symbol id="pencil" viewBox="0 0 24 24" fill="none" stroke="currentColor" stroke-width="2" stroke-linecap="round" stroke-linejoin="round">
    <path d="M21.174 6.812a1 1 0 0 0-3.986-3.987L3.842 16.174a2 2 0 0 0-.5.83l-1.321 4.352a.5.5 0 0 0 .623.622l4.353-1.32a2 2 0 0 0 .83-.497z"/><path d="m15 5 4 4"/>
  </symbol>
  <symbol id="plus" viewBox="0 0 24 24" fill="none" stroke="currentColor" stroke-width="2" stroke-linecap="round" stroke-linejoin="round">
    <path d="M5 12h14"/><path d="M12 5v14"/>
  </symbol>
  <symbol id="quote" viewBox="0 0 24 24" fill="none" stroke="currentColor" stroke-width="2" stroke-linecap="round" stroke-linejoin="round">
    <path d="M16 3a2 2 0 0 0-2 2v6a2 2 0 0 0 2 2 1 1 0 0 1 1 1v1a2 2 0 0 1-2 2 1 1 0 0 0-1 1v2a1 1 0 0 0 1 1 6 6 0 0 0 6-6V5a2 2 0 0 0-2-2z"/><path d="M5 3a2 2 0 0 0-2 2v6a2 2 0 0 0 2 2 1 1 0 0 1 1 1v1a2 2 0 0 1-2 2 1 1 0 0 0-1 1v2a1 1 0 0 0 1 1 6 6 0 0 0 6-6V5a2 2 0 0 0-2-2z"/>
  </symbol>
  <symbol id="redo" viewBox="0 0 24 24" fill="none" stroke="currentColor" stroke-width="2" stroke-linecap="round" stroke-linejoin="round">
    <path d="M21 7v6h-6"/><path d="M3 17a9 9 0 0 1 9-9 9 9 0 0 1 6 2.3l3 2.7"/>
  </symbol>
  <symbol id="save" viewBox="0 0 24 24" fill="none" stroke="currentColor" stroke-width="2" stroke-linecap="round" stroke-linejoin="round">
    <path d="M15.2 3a2 2 0 0 1 1.4.6l3.8 3.8a2 2 0 0 1 .6 1.4V19a2 2 0 0 1-2 2H5a2 2 0 0 1-2-2V5a2 2 0 0 1 2-2z"/><path d="M17 21v-7a1 1 0 0 0-1-1H8a1 1 0 0 0-1 1v7"/><path d="M7 3v4a1 1 0 0 0 1 1h7"/>
  </symbol>
  <symbol id="settings" viewBox="0 0 24 24" fill="none" stroke="currentColor" stroke-width="2" stroke-linecap="round" stroke-linejoin="round">
    <path d="M9.671 4.136a2.34 2.34 0 0 1 4.659 0 2.34 2.34 0 0 0 3.319 1.915 2.34 2.34 0 0 1 2.33 4.033 2.34 2.34 0 0 0 0 3.831 2.34 2.34 0 0 1-2.33 4.033 2.34 2.34 0 0 0-3.319 1.915 2.34 2.34 0 0 1-4.659 0 2.34 2.34 0 0 0-3.32-1.915 2.34 2.34 0 0 1-2.33-4.033 2.34 2.34 0 0 0 0-3.831A2.34 2.34 0 0 1 6.35 6.051a2.34 2.34 0 0 0 3.319-1.915"/><circle cx="12" cy="12" r="3"/>
  </symbol>
  <symbol id="square-code" viewBox="0 0 24 24" fill="none" stroke="currentColor" stroke-width="2" stroke-linecap="round" stroke-linejoin="round">
    <path d="m10 9-3 3 3 3"/><path d="m14 15 3-3-3-3"/><rect x="3" y="3" width="18" height="18" rx="2"/>
  </symbol>
  <symbol id="sun-moon" viewBox="0 0 24 24" fill="none" stroke="currentColor" stroke-width="2" stroke-linecap="round" stroke-linejoin="round">
    <path d="M12 2v2"/><path d="M14.837 16.385a6 6 0 1 1-7.223-7.222c.624-.147.97.66.715 1.248a4 4 0 0 0 5.26 5.259c.589-.255 1.396.09 1.248.715"/><path d="M16 12a4 4 0 0 0-4-4"/><path d="m19 5-1.256 1.256"/><path d="M20 12h2"/>
  </symbol>
  <symbol id="tags" viewBox="0 0 24 24" fill="none" stroke="currentColor" stroke-width="2" stroke-linecap="round" stroke-linejoin="round">
    <path d="M13.172 2a2 2 0 0 1 1.414.586l6.71 6.71a2.4 2.4 0 0 1 0 3.408l-4.592 4.592a2.4 2.4 0 0 1-3.408 0l-6.71-6.71A2 2 0 0 1 6 9.172V3a1 1 0 0 1 1-1z"/><path d="M2 7v6.172a2 2 0 0 0 .586 1.414l6.71 6.71a2.4 2.4 0 0 0 3.191.193"/><circle cx="10.5" cy="6.5" r=".5" fill="currentColor"/>
  </symbol>
  <symbol id="trash-2" viewBox="0 0 24 24" fill="none" stroke="currentColor" stroke-width="2" stroke-linecap="round" stroke-linejoin="round">
    <path d="M10 11v6"/><path d="M14 11v6"/><path d="M19 6v14a2 2 0 0 1-2 2H7a2 2 0 0 1-2-2V6"/><path d="M3 6h18"/><path d="M8 6V4a2 2 0 0 1 2-2h4a2 2 0 0 1 2 2v2"/>
  </symbol>
  <symbol id="undo" viewBox="0 0 24 24" fill="none" stroke="currentColor" stroke-width="2" stroke-linecap="round" stroke-linejoin="round">
    <path d="M3 7v6h6"/><path d="M21 17a9 9 0 0 0-9-9 9 9 0 0 0-6 2.3L3 13"/>
  </symbol>
  <symbol id="x" viewBox="0 0 24 24" fill="none" stroke="currentColor" stroke-width="2" stroke-linecap="round" stroke-linejoin="round">
    <path d="M18 6 6 18"/><path d="m6 6 12 12"/>
  </symbol>
</svg>